<mxfile host="app.diagrams.net" modified="2024-02-26T12:50:39.200Z" agent="Mozilla/5.0 (X11; Ubuntu; Linux x86_64; rv:123.0) Gecko/20100101 Firefox/123.0" version="23.1.6" etag="jp4We7_QLPRqcd8wNfDX" type="github">
  <diagram name="Page-1" id="1Qh1oJwjWRbjdcZ3mO6Z">
    <mxGraphModel>
      <root>
        <mxCell id="0" />
        <mxCell id="1" parent="0" />
      </root>
    </mxGraphModel>
  </diagram>
</mxfile>
